<svg id="Layer_1" enable-background="new 0 0 512 512" height="512" viewBox="0 0 512 512" width="512" xmlns="http://www.w3.org/2000/svg"><g><g fill="#0075a5"><path d="m336.333 206.733h-80.333c-8.284 0-15-6.716-15-15s6.716-15 15-15h74.12l37.155-37.155c5.858-5.858 15.356-5.857 21.213 0 5.858 5.858 5.858 15.355 0 21.213l-41.549 41.548c-2.812 2.814-6.627 4.394-10.606 4.394z"/><path d="m367.275 372.421-37.155-37.155h-74.12c-8.284 0-15-6.716-15-15s6.716-15 15-15h80.333c3.979 0 7.794 1.58 10.606 4.394l41.549 41.548c5.858 5.857 5.858 15.355 0 21.213-5.858 5.86-15.357 5.857-21.213 0z"/><path d="m432.733 271h-176.733c-8.284 0-15-6.716-15-15s6.716-15 15-15h176.733c8.284 0 15 6.716 15 15s-6.715 15-15 15z"/></g><circle cx="400.6" cy="127.467" fill="#00d7f5" r="47.133"/><path d="m447.733 127.467c0 25.989-21.145 47.133-47.134 47.133s-47.133-21.144-47.133-47.133z" fill="#00a4cc"/><circle cx="464.866" cy="256" fill="#00d7f5" r="47.133"/><path d="m512 256c0 25.989-21.145 47.133-47.134 47.133s-47.133-21.144-47.133-47.133z" fill="#00a4cc"/><circle cx="400.6" cy="384.533" fill="#00d7f5" r="47.133"/><path d="m447.733 384.533c0 25.989-21.145 47.133-47.134 47.133s-47.133-21.144-47.133-47.133z" fill="#00a4cc"/><path d="m175.667 0c-47.818 0-87.527 35.393-94.311 81.355-45.963 6.784-81.356 46.493-81.356 94.312 0 33.701 17.58 63.375 44.049 80.333-26.469 16.958-44.049 46.632-44.049 80.333 0 47.818 35.393 87.527 81.355 94.311 6.784 45.963 46.493 81.356 94.312 81.356 52.566 0 95.333-42.767 95.333-95.333v-321.334c0-52.566-42.767-95.333-95.333-95.333z" fill="#fa598e"/><path d="m0 336.333c0 47.818 35.393 87.527 81.355 94.311 6.784 45.963 46.493 81.356 94.312 81.356 52.566 0 95.333-42.767 95.333-95.333v-160.667h-226.951c-26.469 16.958-44.049 46.632-44.049 80.333z" fill="#f81972"/><path d="m241 416.667c0 36.024-29.309 65.333-65.333 65.333s-65.333-29.309-65.333-65.333c0-18.306 14.894-33.2 33.2-33.2 8.284 0 15-6.716 15-15s-6.716-15-15-15c-29.221 0-53.863 19.938-61.064 46.921-29.885-5.992-52.47-32.432-52.47-64.055 0-36.024 29.309-65.333 65.333-65.333 18.307 0 33.2 14.894 33.2 33.2 0 8.284 6.716 15 15 15s15-6.716 15-15c0-19.294-8.693-36.598-22.365-48.2 13.672-11.602 22.365-28.906 22.365-48.2 0-8.284-6.716-15-15-15s-15 6.716-15 15c0 18.307-14.893 33.2-33.2 33.2-36.024 0-65.333-29.309-65.333-65.333 0-31.622 22.585-58.062 52.47-64.055 7.2 26.984 31.843 46.921 61.064 46.921 8.284 0 15-6.716 15-15s-6.716-15-15-15c-18.306 0-33.2-14.894-33.2-33.2 0-36.025 29.308-65.333 65.333-65.333s65.333 29.309 65.333 65.333v32.133c0 18.306-14.894 33.2-33.2 33.2-8.284 0-15 6.716-15 15s6.716 15 15 15c12.172 0 23.545-3.467 33.2-9.454v149.574c-9.655-5.986-21.028-9.454-33.2-9.454-8.284 0-15 6.716-15 15s6.716 15 15 15c18.307 0 33.2 14.894 33.2 33.2z" fill="#fc89ab"/><path d="m158.533 304.2c0 8.284-6.716 15-15 15s-15-6.716-15-15c0-18.307-14.893-33.2-33.2-33.2-36.024 0-65.333 29.309-65.333 65.333 0 31.622 22.585 58.062 52.47 64.055 7.2-26.984 31.843-46.921 61.064-46.921 8.284 0 15 6.716 15 15s-6.716 15-15 15c-18.306 0-33.2 14.894-33.2 33.2 0 36.025 29.308 65.333 65.333 65.333s65.333-29.309 65.333-65.333v-32.133c0-18.306-14.894-33.2-33.2-33.2-8.284 0-15-6.716-15-15s6.716-15 15-15c12.172 0 23.545 3.467 33.2 9.454v-74.788h-104.832c13.672 11.602 22.365 28.906 22.365 48.2z" fill="#fa598e"/></g></svg>